# xmcd CD database file
#
# Track frame offsets:
#	150
#	27840
#	64480
#	88417
#	134217
#	157110
#	193377
#	226860
#	251670
#	281960
#
# Disc length: 4054 seconds
#
# Revision: 0
# Processed by: cddbd v1.5.1PL2 Copyright (c) Steve Scherf et al.
# Submitted via: CDex 1.51
#
DISCID=a30fd40a
DTITLE=Skerik's Syncopated Taint Septet - Husky
DYEAR=2006
DGENRE=Jazz
TTITLE0=The Third Rail
TTITLE1=Go To Hell, Mr. Bush
TTITLE2=Syncopate the Taint
TTITLE3=Fry His Ass
TTITLE4=Don't Wanna
TTITLE5=Song For Bad
TTITLE6=Taming the Shrew
TTITLE7=Irritaint
TTITLE8=Summer Pudding
TTITLE9=Daddy Won't Taint Bye-Bye
EXTD=YEAR: 2006
EXTT0=
EXTT1=
EXTT2=
EXTT3=
EXTT4=
EXTT5=
EXTT6=
EXTT7=
EXTT8=
EXTT9=
PLAYORDER=
